<mxfile host="app.diagrams.net" modified="2024-05-01T23:33:20.578Z" agent="Mozilla/5.0 (Windows NT 10.0; Win64; x64; rv:125.0) Gecko/20100101 Firefox/125.0" etag="vRA63BZS7zXNYSkxYmj4" version="24.3.1" type="device">
  <diagram name="Page-1" id="-xXs6oY8tFI2pe32rdLF">
    <mxGraphModel dx="2072" dy="1133" grid="1" gridSize="10" guides="1" tooltips="1" connect="1" arrows="1" fold="1" page="1" pageScale="1" pageWidth="1169" pageHeight="827" math="0" shadow="0">
      <root>
        <mxCell id="0" />
        <mxCell id="1" parent="0" />
        <mxCell id="TWxtFUeW4xHcDfnMlOtu-5" style="edgeStyle=orthogonalEdgeStyle;rounded=0;orthogonalLoop=1;jettySize=auto;html=1;horizontal=1;endArrow=none;endFill=0;" parent="1" source="TWxtFUeW4xHcDfnMlOtu-1" edge="1">
          <mxGeometry relative="1" as="geometry">
            <mxPoint x="585" y="160" as="targetPoint" />
          </mxGeometry>
        </mxCell>
        <mxCell id="TWxtFUeW4xHcDfnMlOtu-1" value="Home" style="rounded=0;whiteSpace=wrap;html=1;fontStyle=1" parent="1" vertex="1">
          <mxGeometry x="525" y="70" width="120" height="60" as="geometry" />
        </mxCell>
        <mxCell id="TWxtFUeW4xHcDfnMlOtu-2" value="About" style="rounded=0;whiteSpace=wrap;html=1;fontStyle=1" parent="1" vertex="1">
          <mxGeometry x="525" y="180" width="120" height="60" as="geometry" />
        </mxCell>
        <mxCell id="TWxtFUeW4xHcDfnMlOtu-3" value="Resume" style="rounded=0;whiteSpace=wrap;html=1;fontStyle=1" parent="1" vertex="1">
          <mxGeometry x="380" y="180" width="120" height="60" as="geometry" />
        </mxCell>
        <mxCell id="TWxtFUeW4xHcDfnMlOtu-4" value="Web Skills" style="rounded=0;whiteSpace=wrap;html=1;fontStyle=1" parent="1" vertex="1">
          <mxGeometry x="670" y="180" width="120" height="60" as="geometry" />
        </mxCell>
        <mxCell id="TWxtFUeW4xHcDfnMlOtu-6" value="" style="endArrow=none;html=1;rounded=0;" parent="1" edge="1">
          <mxGeometry width="50" height="50" relative="1" as="geometry">
            <mxPoint x="440" y="160" as="sourcePoint" />
            <mxPoint x="730" y="160" as="targetPoint" />
          </mxGeometry>
        </mxCell>
        <mxCell id="TWxtFUeW4xHcDfnMlOtu-7" value="" style="endArrow=none;html=1;rounded=0;entryX=0.5;entryY=0;entryDx=0;entryDy=0;" parent="1" target="TWxtFUeW4xHcDfnMlOtu-3" edge="1">
          <mxGeometry width="50" height="50" relative="1" as="geometry">
            <mxPoint x="440" y="160" as="sourcePoint" />
            <mxPoint x="490" y="110" as="targetPoint" />
          </mxGeometry>
        </mxCell>
        <mxCell id="TWxtFUeW4xHcDfnMlOtu-8" value="" style="endArrow=none;html=1;rounded=0;entryX=0.5;entryY=0;entryDx=0;entryDy=0;" parent="1" edge="1">
          <mxGeometry width="50" height="50" relative="1" as="geometry">
            <mxPoint x="584.8" y="160" as="sourcePoint" />
            <mxPoint x="584.8" y="180" as="targetPoint" />
          </mxGeometry>
        </mxCell>
        <mxCell id="TWxtFUeW4xHcDfnMlOtu-9" value="" style="endArrow=none;html=1;rounded=0;entryX=0.5;entryY=0;entryDx=0;entryDy=0;" parent="1" edge="1">
          <mxGeometry width="50" height="50" relative="1" as="geometry">
            <mxPoint x="729.8" y="160" as="sourcePoint" />
            <mxPoint x="729.8" y="180" as="targetPoint" />
          </mxGeometry>
        </mxCell>
        <mxCell id="TWxtFUeW4xHcDfnMlOtu-10" value="Profile" style="rounded=0;whiteSpace=wrap;html=1;fontStyle=0" parent="1" vertex="1">
          <mxGeometry x="380" y="240" width="120" height="60" as="geometry" />
        </mxCell>
        <mxCell id="TWxtFUeW4xHcDfnMlOtu-11" value="Skills" style="rounded=0;whiteSpace=wrap;html=1;fontStyle=0" parent="1" vertex="1">
          <mxGeometry x="380" y="300" width="120" height="60" as="geometry" />
        </mxCell>
        <mxCell id="TWxtFUeW4xHcDfnMlOtu-12" value="Biography and Contact Information" style="rounded=0;whiteSpace=wrap;html=1;fontStyle=0" parent="1" vertex="1">
          <mxGeometry x="380" y="360" width="120" height="60" as="geometry" />
        </mxCell>
        <mxCell id="TWxtFUeW4xHcDfnMlOtu-13" value="University Degree Units" style="rounded=0;whiteSpace=wrap;html=1;fontStyle=0" parent="1" vertex="1">
          <mxGeometry x="380" y="480" width="120" height="60" as="geometry" />
        </mxCell>
        <mxCell id="TWxtFUeW4xHcDfnMlOtu-14" value="History with Computers" style="rounded=0;whiteSpace=wrap;html=1;fontStyle=0" parent="1" vertex="1">
          <mxGeometry x="380" y="540" width="120" height="60" as="geometry" />
        </mxCell>
        <mxCell id="TWxtFUeW4xHcDfnMlOtu-15" value="Social Links" style="rounded=0;whiteSpace=wrap;html=1;fontStyle=0" parent="1" vertex="1">
          <mxGeometry x="380" y="420" width="120" height="60" as="geometry" />
        </mxCell>
        <mxCell id="Tw2XoH7DMQkWuHRdg6mi-2" value="What I do" style="rounded=0;whiteSpace=wrap;html=1;fontStyle=0" vertex="1" parent="1">
          <mxGeometry x="525" y="300" width="120" height="60" as="geometry" />
        </mxCell>
        <mxCell id="Tw2XoH7DMQkWuHRdg6mi-3" value="Who am I" style="rounded=0;whiteSpace=wrap;html=1;fontStyle=0" vertex="1" parent="1">
          <mxGeometry x="525" y="240" width="120" height="60" as="geometry" />
        </mxCell>
        <mxCell id="Tw2XoH7DMQkWuHRdg6mi-4" value="Showcase of Computer Projects and Work" style="rounded=0;whiteSpace=wrap;html=1;fontStyle=0" vertex="1" parent="1">
          <mxGeometry x="525" y="360" width="120" height="60" as="geometry" />
        </mxCell>
        <mxCell id="Tw2XoH7DMQkWuHRdg6mi-5" value="HTML Skills" style="rounded=0;whiteSpace=wrap;html=1;fontStyle=0" vertex="1" parent="1">
          <mxGeometry x="670" y="240" width="120" height="60" as="geometry" />
        </mxCell>
        <mxCell id="Tw2XoH7DMQkWuHRdg6mi-6" value="CSS Skills" style="rounded=0;whiteSpace=wrap;html=1;fontStyle=0" vertex="1" parent="1">
          <mxGeometry x="670" y="300" width="120" height="60" as="geometry" />
        </mxCell>
        <mxCell id="Tw2XoH7DMQkWuHRdg6mi-7" value="JavaScript Skills" style="rounded=0;whiteSpace=wrap;html=1;fontStyle=0" vertex="1" parent="1">
          <mxGeometry x="670" y="360" width="120" height="60" as="geometry" />
        </mxCell>
      </root>
    </mxGraphModel>
  </diagram>
</mxfile>
